HIERARCHY
ROOT hip
{
	OFFSET 0.000000 0.000000 0.000000 
	CHANNELS 6 Xposition Yposition Zposition Zrotation Yrotation Xrotation
	JOINT abdomen
	{
		OFFSET 0.000000 20.688101 -0.731520 
		CHANNELS 3 Zrotation Xrotation Yrotation
		JOINT chest
		{
			OFFSET 0.000000 11.704300 -0.487680 
			CHANNELS 3 Zrotation Xrotation Yrotation
			JOINT neck
			{
				OFFSET 0.000000 22.189400 -2.194560 
				CHANNELS 3 Zrotation Xrotation Yrotation
				JOINT head
				{
					OFFSET -0.243840 7.071330 1.219200 
					CHANNELS 3 Zrotation Xrotation Yrotation
					End Site
					{
						OFFSET 1.000000 0.000000 0.000000 
					}
				}
			}
			JOINT rCollar
			{
				OFFSET -2.682240 19.263399 -4.876800 
				CHANNELS 3 Zrotation Xrotation Yrotation
				JOINT rShldr
				{
					OFFSET -8.778240 -1.950730 1.463040 
					CHANNELS 3 Zrotation Xrotation Yrotation
					JOINT rForeArm
					{
						OFFSET -28.174200 -1.711500 0.487680 
						CHANNELS 3 Zrotation Xrotation Yrotation
						JOINT rHand
						{
							OFFSET -22.587900 0.773209 7.071360 
							CHANNELS 3 Zrotation Xrotation Yrotation
							End Site
							{
								OFFSET -1.782710 -1.182140 1.430490 
							}
						}
					}
				}
			}
			JOINT lCollar
			{
				OFFSET 2.682240 19.263399 -4.876800 
				CHANNELS 3 Zrotation Xrotation Yrotation
				JOINT lShldr
				{
					OFFSET 8.778240 -1.950730 1.463040 
					CHANNELS 3 Zrotation Xrotation Yrotation
					JOINT lForeArm
					{
						OFFSET 28.174200 -1.711500 0.487680 
						CHANNELS 3 Zrotation Xrotation Yrotation
						JOINT lHand
						{
							OFFSET 22.587900 0.773209 7.071360 
							CHANNELS 3 Zrotation Xrotation Yrotation
							End Site
							{
								OFFSET 1.782710 -1.182140 1.430490 
							}
						}
					}
				}
			}
		}
	}
	JOINT rButtock
	{
		OFFSET -8.778240 4.350840 1.219200 
		CHANNELS 3 Zrotation Xrotation Yrotation
		JOINT rThigh
		{
			OFFSET 0.000000 -1.706870 -2.194560 
			CHANNELS 3 Zrotation Xrotation Yrotation
			JOINT rShin
			{
				OFFSET 0.000000 -36.819901 0.731520 
				CHANNELS 3 Zrotation Xrotation Yrotation
				JOINT rFoot
				{
					OFFSET 0.731520 -45.110401 -5.120640 
					CHANNELS 3 Zrotation Xrotation Yrotation
					End Site
					{
						OFFSET -1.122100 -3.699640 12.103000 
					}
				}
			}
		}
	}
	JOINT lButtock
	{
		OFFSET 8.778240 4.350840 1.219200 
		CHANNELS 3 Zrotation Xrotation Yrotation
		JOINT lThigh
		{
			OFFSET 0.000000 -1.706870 -2.194560 
			CHANNELS 3 Zrotation Xrotation Yrotation
			JOINT lShin
			{
				OFFSET 0.000000 -36.819901 0.731520 
				CHANNELS 3 Zrotation Xrotation Yrotation
				JOINT lFoot
				{
					OFFSET -0.731520 -45.110401 -5.120640 
					CHANNELS 3 Zrotation Xrotation Yrotation
					End Site
					{
						OFFSET 1.122100 -3.699640 12.103000 
					}
				}
			}
		}
	}
}
MOTION
Frames: 9
Frame Time: 0.008333
-8.480001 84.288803 30.671799 -1.378500 -32.687599 16.560301 6.196720 13.704000 -0.476556 -0.502268 -1.524780 0.018566 0.533369 -5.003240 3.740060 -5.937580 31.190800 7.826170 -0.000000 -0.000000 0.000000 -7.980830 44.584801 59.535801 -26.764900 -25.582399 60.214401 -0.583904 21.181700 3.121910 -0.000000 -0.000000 0.000000 8.478580 62.377499 -96.866997 27.108801 -26.708401 -62.009102 15.161300 -69.277397 21.807600 -0.000000 0.000000 -0.000000 -1.101590 -29.111700 5.633680 -0.036755 17.581301 0.185517 -1.160100 -3.102970 -4.963510 0.000000 0.000000 0.000000 5.892220 -24.680000 -4.406910 0.108640 21.652500 -0.374822 4.785740 -10.191700 15.372400 
-8.506001 84.285103 30.650101 -1.442100 -32.593700 16.700899 6.204700 13.683500 -0.442486 -0.525019 -1.456350 0.027683 0.659581 -4.945540 3.608500 -6.215490 30.997700 7.591880 -0.000000 0.000000 0.000000 -8.252600 44.372101 59.691399 -26.732700 -25.483101 60.055302 -0.588572 21.260599 3.134710 -0.000000 0.000000 0.000000 8.635440 62.299198 -97.065002 27.098301 -26.671801 -61.950699 15.115500 -69.236504 21.758499 -0.000000 0.000000 -0.000000 -1.109370 -29.158400 5.436330 -0.036559 17.555599 0.185953 -1.152690 -3.165380 -4.891450 0.000000 0.000000 0.000000 5.897160 -24.784599 -4.618010 0.108959 21.684799 -0.376003 4.820670 -10.200100 15.469800 
-8.530602 84.281998 30.623699 -1.512300 -32.477402 16.843100 6.212000 13.674300 -0.381322 -0.552735 -1.387040 0.044400 0.778146 -4.897500 3.466660 -6.453520 30.811701 7.330140 0.000000 0.000000 -0.000000 -8.540550 44.187801 59.814400 -26.704100 -25.395700 59.915001 -0.593961 21.352100 3.149560 0.000000 0.000000 -0.000000 8.929260 62.168701 -97.381699 27.086800 -26.631901 -61.887199 15.119200 -69.239700 21.762501 -0.000000 0.000000 -0.000000 -1.101210 -29.207399 5.245580 -0.036345 17.518101 0.186200 -1.144210 -3.219350 -4.818100 0.000000 0.000000 0.000000 5.918710 -24.903799 -4.814650 0.109464 21.728701 -0.377026 4.851120 -10.199200 15.559300 
-8.538500 84.281502 30.606098 -1.529800 -32.333000 16.920799 6.222710 13.696700 -0.323218 -0.581433 -1.333040 0.060658 0.847514 -4.869490 3.352610 -6.612490 30.631100 7.122040 0.000000 0.000000 -0.000000 -8.736830 44.047001 59.838001 -26.680500 -25.324100 59.801201 -0.601583 21.481800 3.170590 0.000000 0.000000 -0.000000 9.356980 61.987900 -97.797096 27.078699 -26.604200 -61.843399 15.236600 -69.343903 21.888100 -0.000000 0.000000 -0.000000 -1.080920 -29.242599 5.079030 -0.035935 17.469500 0.186333 -1.141070 -3.245520 -4.799550 0.000000 0.000000 0.000000 5.955980 -25.033300 -4.969310 0.110141 21.775600 -0.377151 4.856510 -10.181400 15.583600 
-8.554600 84.280998 30.576900 -1.512300 -32.174198 16.998800 6.235080 13.767400 -0.273930 -0.605292 -1.306200 0.074982 0.842559 -4.862730 3.274340 -6.671110 30.437599 6.986260 0.000000 0.000000 -0.000000 -8.835230 43.984299 59.724201 -26.667400 -25.284800 59.740200 -0.612593 21.667200 3.200730 0.000000 0.000000 -0.000000 9.927640 61.757500 -98.316101 27.077299 -26.599400 -61.835999 15.508000 -69.579697 22.177900 -0.000000 0.000000 -0.000000 -1.050270 -29.257900 4.941540 -0.035276 17.411900 0.186417 -1.146500 -3.235240 -4.860490 0.000000 0.000000 0.000000 6.009680 -25.175501 -5.063110 0.111044 21.826700 -0.375924 4.823040 -10.135600 15.508600 
-8.582602 84.283501 30.522499 -1.585000 -32.048000 17.121201 6.247680 13.871700 -0.218099 -0.628011 -1.295380 0.091447 0.789954 -4.872210 3.212230 -6.653290 30.238199 6.880230 -0.000000 0.000000 0.000000 -8.886310 43.980598 59.515499 -26.662800 -25.271000 59.719398 -0.626125 21.890900 3.237240 -0.000000 0.000000 0.000000 10.630900 61.473801 -98.936203 27.079500 -26.607100 -61.848499 15.901900 -69.910698 22.597900 -0.000000 0.000000 -0.000000 -1.006790 -29.262699 4.823770 -0.034464 17.344400 0.186398 -1.156530 -3.200000 -4.967750 0.000000 0.000000 0.000000 6.080350 -25.331699 -5.114440 0.112157 21.885500 -0.373825 4.764720 -10.068800 15.371100 
-8.573502 84.290298 30.494499 -1.659800 -31.771500 17.206100 6.265190 13.983200 -0.154198 -0.659868 -1.282270 0.110312 0.725738 -4.899040 3.163010 -6.586660 30.069901 6.792640 -0.000000 -0.000000 0.000000 -8.868130 43.971600 59.266602 -26.656500 -25.251900 59.688400 -0.640639 22.126699 3.275870 -0.000000 -0.000000 0.000000 11.433800 61.133301 -99.625000 27.080700 -26.611300 -61.855202 16.376101 -70.293297 23.102100 -0.000000 0.000000 -0.000000 -0.947747 -29.263599 4.722070 -0.033550 17.262800 0.186171 -1.166910 -3.150610 -5.090670 0.000000 0.000000 0.000000 6.166990 -25.496000 -5.151600 0.113361 21.946301 -0.371511 4.702540 -10.000400 15.220500 
-8.587101 84.309097 30.468899 -1.700000 -31.582300 17.282700 6.292360 14.075200 -0.080725 -0.711162 -1.248590 0.131836 0.685964 -4.944280 3.123430 -6.498760 29.969200 6.712110 -0.000000 -0.000000 0.000000 -8.759760 43.893398 59.033600 -26.638000 -25.196400 59.597000 -0.654453 22.347900 3.312240 -0.000000 -0.000000 0.000000 12.303900 60.733101 -100.349998 27.076300 -26.596201 -61.830700 16.882000 -70.684303 23.638800 -0.000000 0.000000 -0.000000 -0.870465 -29.267099 4.632780 -0.032584 17.162701 0.185630 -1.173520 -3.097890 -5.198590 0.000000 0.000000 0.000000 6.268240 -25.662399 -5.203040 0.114544 22.003401 -0.369640 4.657100 -9.950130 15.106000 
-8.618401 84.325600 30.431698 -1.754800 -31.428900 17.403000 6.337870 14.135500 0.024837 -0.809251 -1.176800 0.162369 0.692719 -5.026170 3.093240 -6.347710 29.983601 6.621630 -0.000000 -0.000000 0.000000 -8.502850 43.747101 58.797001 -26.600800 -25.085400 59.415901 -0.665382 22.518999 3.340500 -0.000000 -0.000000 0.000000 13.367500 60.220600 -101.206001 27.063400 -26.551901 -61.759499 17.476801 -71.123299 24.268299 -0.000000 0.000000 -0.000000 -0.761909 -29.270300 4.567380 -0.031520 17.035999 0.184609 -1.175560 -3.035180 -5.295570 0.000000 0.000000 0.000000 6.393160 -25.830000 -5.278090 0.115705 22.054701 -0.368390 4.635010 -9.926210 15.042000 
